<svg id="Ebene_1" data-name="Ebene 1" xmlns="http://www.w3.org/2000/svg" width="38" height="30" viewBox="0 0 38 30">
  <defs>
    <style>
      .cls-1 {
        fill: #ff5f00;
      }

      .cls-2 {
        fill: #eb001b;
      }

      .cls-3 {
        fill: #f79e1b;
      }
    </style>
  </defs>
  <title>payment-2017</title>
  <g>
    <path id="_Zusammengesetzter_Pfad_" data-name="&lt;Zusammengesetzter Pfad&gt;" d="M6.91,29.92v-2a1.17,1.17,0,0,0-1.23-1.26,1.2,1.2,0,0,0-1.1.56,1.14,1.14,0,0,0-1-.56,1,1,0,0,0-.91.47v-.39H2v3.17h.68V28.16a.74.74,0,0,1,.76-.84c.45,0,.68.3.68.84v1.77h.68V28.16a.74.74,0,0,1,.76-.84c.46,0,.68.3.68.84v1.77ZM17,26.75H15.94v-1h-.68v1h-.63v.63h.63v1.45c0,.74.28,1.18,1.08,1.18a1.57,1.57,0,0,0,.85-.25l-.2-.59a1.24,1.24,0,0,1-.6.18c-.34,0-.45-.21-.45-.53V27.38H17Zm5.79-.08a.92.92,0,0,0-.82.46v-.39h-.67v3.17H22V28.14c0-.52.22-.82.67-.82a1.09,1.09,0,0,1,.42.08l.21-.65a1.43,1.43,0,0,0-.48-.09ZM14.09,27a2.3,2.3,0,0,0-1.27-.33c-.79,0-1.3.39-1.3,1s.38.84,1.08.94l.32,0c.37.05.55.15.55.33s-.25.39-.71.39a1.64,1.64,0,0,1-1-.33l-.32.54a2.22,2.22,0,0,0,1.35.41c.9,0,1.42-.43,1.42-1s-.41-.85-1.09-.95l-.32,0c-.29,0-.53-.1-.53-.31s.22-.37.59-.37a2,2,0,0,1,1,.27Zm18.17-.33a.92.92,0,0,0-.82.46v-.39h-.67v3.17h.68V28.14c0-.52.22-.82.67-.82a1.09,1.09,0,0,1,.42.08l.21-.65a1.43,1.43,0,0,0-.48-.09Zm-8.74,1.67A1.59,1.59,0,0,0,25.18,30a1.61,1.61,0,0,0,1.12-.38L26,29.06a1.36,1.36,0,0,1-.82.29,1,1,0,0,1,0-2,1.35,1.35,0,0,1,.82.29l.33-.56a1.62,1.62,0,0,0-1.12-.38,1.59,1.59,0,0,0-1.66,1.67Zm6.35,0V26.75H29.2v.39a1.18,1.18,0,0,0-1-.46,1.67,1.67,0,0,0,0,3.33,1.18,1.18,0,0,0,1-.46v.39h.68Zm-2.52,0a.95.95,0,1,1,.95,1,.94.94,0,0,1-.95-1Zm-8.19-1.67a1.67,1.67,0,0,0,0,3.33,1.87,1.87,0,0,0,1.28-.44L20.15,29a1.47,1.47,0,0,1-.91.33.87.87,0,0,1-.93-.78h2.32c0-.09,0-.17,0-.27a1.51,1.51,0,0,0-1.48-1.67Zm0,.62a.78.78,0,0,1,.79.77H18.32a.81.81,0,0,1,.83-.77Zm17,1V25.47h-.68v1.66a1.18,1.18,0,0,0-1-.46,1.67,1.67,0,0,0,0,3.33,1.18,1.18,0,0,0,1-.46v.39h.68Zm-2.52,0a.95.95,0,1,1,.95,1,.94.94,0,0,1-.95-1Zm-22.91,0V26.75h-.68v.39a1.18,1.18,0,0,0-1-.46,1.67,1.67,0,0,0,0,3.33,1.18,1.18,0,0,0,1-.46v.39h.68Zm-2.52,0a.95.95,0,1,1,.95,1A.94.94,0,0,1,8.21,28.33Z"/>
    <g id="_Gruppe_" data-name="&lt;Gruppe&gt;">
      <rect class="cls-1" x="13.86" y="2.56" width="10.28" height="18.8"/>
      <path id="_Pfad_" data-name="&lt;Pfad&gt;" class="cls-2" d="M14.51,12A12,12,0,0,1,19,2.56,11.56,11.56,0,0,0,11.74,0,11.85,11.85,0,0,0,0,12a11.85,11.85,0,0,0,11.74,12A11.56,11.56,0,0,0,19,21.35,12,12,0,0,1,14.51,12Z"/>
      <path class="cls-3" d="M38,12a11.85,11.85,0,0,1-11.74,12A11.56,11.56,0,0,1,19,21.35a12.09,12.09,0,0,0,0-18.8A11.56,11.56,0,0,1,26.26,0,11.85,11.85,0,0,1,38,12Z"/>
    </g>
  </g>
</svg>
