<svg id="Ebene_1" data-name="Ebene 1" xmlns="http://www.w3.org/2000/svg" xmlns:xlink="http://www.w3.org/1999/xlink" width="61" height="30" viewBox="0 0 61 30">
  <defs>
    <style>
      .cls-1 {
        fill: none;
      }

      .cls-2 {
        clip-path: url(#clip-path);
      }

      .cls-3 {
        fill: url(#Unbenannter_Verlauf_3);
      }
    </style>
    <clipPath id="clip-path">
      <path class="cls-1" d="M31.83,11.75c0,2.51,2.3,3.91,4.06,4.74s2.41,1.4,2.41,2.16c0,1.17-1.44,1.68-2.78,1.7a9.92,9.92,0,0,1-4.76-1.1l-.84,3.81a14.33,14.33,0,0,0,5.16.92c4.87,0,8.06-2.33,8.07-6,0-4.59-6.54-4.85-6.5-6.9,0-.62.63-1.29,2-1.46a9,9,0,0,1,4.57.78L44,6.77A12.76,12.76,0,0,0,39.67,6c-4.58,0-7.81,2.37-7.84,5.75m20-5.44a2.12,2.12,0,0,0-2,1.28l-7,16.13h4.87l1-2.6H54.7l.56,2.6h4.29L55.8,6.32h-4m.68,4.7,1.4,6.54H50.08L52.52,11M25.93,6.32,22.1,23.73h4.64L30.57,6.32H25.93m-6.86,0L14.24,18.17l-2-10.08a2.15,2.15,0,0,0-2.14-1.77H2.26l-.11.51A19.71,19.71,0,0,1,6.73,8.3a1.91,1.91,0,0,1,1.1,1.53l3.7,13.89h4.9L23.94,6.32H19.07"/>
    </clipPath>
    <linearGradient id="Unbenannter_Verlauf_3" data-name="Unbenannter Verlauf 3" x1="-520.38" y1="30.91" x2="-520.27" y2="30.91" gradientTransform="matrix(419.71, -154.57, -154.57, -419.71, 223193.99, -67438.96)" gradientUnits="userSpaceOnUse">
      <stop offset="0" stop-color="#222357"/>
      <stop offset="1" stop-color="#254aa5"/>
    </linearGradient>
  </defs>
  <title>payment-2017</title>
  <g id="layer1">
    <g id="g10267">
      <g class="cls-2">
        <g id="g10269">
          <g id="g10275">
            <path id="path10283" class="cls-3" d="M-3.86,8.15,52.69-12.08,65.56,21.85,9,42.08"/>
          </g>
        </g>
      </g>
    </g>
  </g>
</svg>
