<?xml version="1.0" encoding="UTF-8" standalone="no"?>
<svg width="62px" height="16px" viewBox="0 0 62 16" version="1.1" xmlns="http://www.w3.org/2000/svg" xmlns:xlink="http://www.w3.org/1999/xlink" xmlns:sketch="http://www.bohemiancoding.com/sketch/ns">
    <!-- Generator: Sketch 3.3.3 (12072) - http://www.bohemiancoding.com/sketch -->
    <title>logo_paypal</title>
    <desc>Created with Sketch.</desc>
    <defs>
        <path id="path-1" d="M0,0.320864865 L53.9306486,0.320864865 L53.9306486,13.9772973 L0,13.9772973"></path>
        <path id="path-3" d="M0,0.320864865 L53.9306486,0.320864865 L53.9306486,13.9772973 L0,13.9772973"></path>
    </defs>
    <g id="Page-1" stroke="none" stroke-width="1" fill="none" fill-rule="evenodd" sketch:type="MSPage">
        <g id="logo_paypal" sketch:type="MSArtboardGroup">
            <g sketch:type="MSLayerGroup" transform="translate(4.000000, 1.000000)">
                <g id="Group-3">
                    <mask id="mask-2" sketch:name="Clip 2" fill="white">
                        <use xlink:href="#path-1"></use>
                    </mask>
                    <g id="Clip-2"></g>
                    <path d="M9.87,1.35232432 C9.23659459,0.630378378 8.09162162,0.320864865 6.62691892,0.320864865 L2.37583784,0.320864865 C2.07616216,0.320864865 1.82151351,0.538810811 1.77459459,0.834324324 L0.00454054054,12.0604324 C-0.0306486486,12.2817838 0.140756757,12.4823243 0.365135135,12.4823243 L2.98956757,12.4823243 L3.6487027,8.30162162 L3.62827027,8.43254054 C3.67518919,8.13702703 3.92794595,7.91908108 4.22724324,7.91908108 L5.47437838,7.91908108 C7.92437838,7.91908108 9.84275676,6.92394595 10.4031351,4.04524324 C10.4197838,3.96010811 10.4341622,3.87724324 10.4466486,3.79627027 C10.3758919,3.75881081 10.3758919,3.75881081 10.4466486,3.79627027 C10.6135135,2.73227027 10.4455135,2.00805405 9.87,1.35232432" id="Fill-1" fill="#27346A" sketch:type="MSShapeGroup" mask="url(#mask-2)"></path>
                </g>
                <path d="M41.9992432,6.69427027 C41.8388108,7.74767568 41.0343784,7.74767568 40.2560541,7.74767568 L39.8133514,7.74767568 L40.124,5.78086486 C40.1425405,5.66205405 40.2450811,5.57464865 40.3654054,5.57464865 L40.5685946,5.57464865 C41.0983243,5.57464865 41.5985405,5.57464865 41.8565946,5.87621622 C42.010973,6.0567027 42.0575135,6.32459459 41.9992432,6.69427027 M41.6605946,3.94572973 L38.7258919,3.94572973 C38.524973,3.94572973 38.3543243,4.09178378 38.3229189,4.29005405 L37.1363243,11.8152432 C37.1128649,11.9635676 37.2278919,12.0978919 37.3777297,12.0978919 L38.8836757,12.0978919 C39.0240541,12.0978919 39.1436216,11.9957297 39.1655676,11.8572432 L39.5023243,9.72356757 C39.5333514,9.5252973 39.7043784,9.37924324 39.9049189,9.37924324 L40.8334595,9.37924324 C42.7665946,9.37924324 43.8824324,8.44389189 44.1737838,6.58945946 C44.3050811,5.77897297 44.1790811,5.14178378 43.7995676,4.69567568 C43.3822162,4.2052973 42.6424865,3.94572973 41.6605946,3.94572973" id="Fill-4" fill="#2790C3" sketch:type="MSShapeGroup"></path>
                <path d="M21.0673514,6.69427027 C20.9069189,7.74767568 20.1024865,7.74767568 19.3241622,7.74767568 L18.8814595,7.74767568 L19.1921081,5.78086486 C19.2106486,5.66205405 19.3131892,5.57464865 19.4335135,5.57464865 L19.6367027,5.57464865 C20.1664324,5.57464865 20.6666486,5.57464865 20.9247027,5.87621622 C21.0790811,6.0567027 21.1256216,6.32459459 21.0673514,6.69427027 M20.7287027,3.94572973 L17.794,3.94572973 C17.5930811,3.94572973 17.4224324,4.09178378 17.391027,4.29005405 L16.2044324,11.8152432 C16.180973,11.9635676 16.2956216,12.0978919 16.4458378,12.0978919 L17.8473514,12.0978919 C18.0478919,12.0978919 18.2185405,11.9518378 18.2499459,11.7539459 L18.5704324,9.72356757 C18.6014595,9.5252973 18.7724865,9.37924324 18.973027,9.37924324 L19.9015676,9.37924324 C21.8347027,9.37924324 22.9505405,8.44389189 23.2418919,6.58945946 C23.3731892,5.77897297 23.2471892,5.14178378 22.8676757,4.69567568 C22.4503243,4.2052973 21.7105946,3.94572973 20.7287027,3.94572973" id="Fill-5" fill="#27346A" sketch:type="MSShapeGroup"></path>
                <path d="M27.5417838,9.39589189 C27.4059459,10.1988108 26.7687568,10.738 25.9556216,10.738 C25.5481081,10.738 25.2215676,10.6067027 25.0119459,10.3584865 C24.8042162,10.1125405 24.7258919,9.76178378 24.7917297,9.37167568 C24.9181081,8.57556757 25.5658919,8.01935135 26.3665405,8.01935135 C26.7657297,8.01935135 27.0896216,8.15178378 27.3034054,8.40227027 C27.5187027,8.65464865 27.6034595,9.0072973 27.5417838,9.39589189 M29.5002703,6.66059459 L28.094973,6.66059459 C27.9746486,6.66059459 27.8721081,6.748 27.8531892,6.86718919 L27.7915135,7.25994595 L27.6935135,7.11767568 C27.3889189,6.67610811 26.7104865,6.52816216 26.0331892,6.52816216 C24.4807027,6.52816216 23.1544865,7.70491892 22.8964324,9.35502703 C22.7621081,10.1783784 22.9528108,10.965027 23.4197297,11.5140541 C23.8484324,12.0184324 24.4602703,12.2284324 25.1894054,12.2284324 C26.4410811,12.2284324 27.135027,11.4247568 27.135027,11.4247568 L27.0722162,11.8152432 C27.0487568,11.9635676 27.1634054,12.0978919 27.314,12.0978919 L28.5792973,12.0978919 C28.7802162,12.0978919 28.9508649,11.9522162 28.9822703,11.7539459 L29.7420541,6.94324324 C29.7655135,6.79491892 29.6504865,6.66059459 29.5002703,6.66059459" id="Fill-6" fill="#27346A" sketch:type="MSShapeGroup"></path>
                <g id="Group-14">
                    <mask id="mask-4" sketch:name="Clip 8" fill="white">
                        <use xlink:href="#path-3"></use>
                    </mask>
                    <g id="Clip-8"></g>
                    <path d="M48.4736757,9.39589189 C48.3378378,10.1988108 47.7006486,10.738 46.8875135,10.738 C46.48,10.738 46.1534595,10.6067027 45.9438378,10.3584865 C45.7357297,10.1125405 45.6577838,9.76178378 45.7236216,9.37167568 C45.85,8.57556757 46.4977838,8.01935135 47.2984324,8.01935135 C47.6976216,8.01935135 48.0215135,8.15178378 48.2352973,8.40227027 C48.4505946,8.65464865 48.5353514,9.0072973 48.4736757,9.39589189 M50.4321622,6.66059459 L49.0268649,6.66059459 C48.9065405,6.66059459 48.804,6.748 48.7850811,6.86718919 L48.7234054,7.25994595 L48.625027,7.11767568 C48.3208108,6.67610811 47.6423784,6.52816216 46.9650811,6.52816216 C45.4125946,6.52816216 44.0863784,7.70491892 43.8283243,9.35502703 C43.694,10.1783784 43.8847027,10.965027 44.3516216,11.5140541 C44.7803243,12.0184324 45.3921622,12.2284324 46.1212973,12.2284324 C47.372973,12.2284324 48.0669189,11.4247568 48.0669189,11.4247568 L48.0041081,11.8152432 C47.9806486,11.9635676 48.0952973,12.0978919 48.2458919,12.0978919 L49.5111892,12.0978919 C49.7121081,12.0978919 49.8827568,11.9522162 49.9141622,11.7539459 L50.6739459,6.94324324 C50.6974054,6.79491892 50.5823784,6.66059459 50.4321622,6.66059459" id="Fill-7" fill="#2790C3" sketch:type="MSShapeGroup" mask="url(#mask-4)"></path>
                    <path d="M36.984973,6.66059459 L35.5724865,6.66059459 C35.4374054,6.66059459 35.311027,6.72756757 35.2353514,6.83956757 L33.2867027,9.70918919 L32.4610811,6.95156757 C32.4092432,6.77902703 32.2503243,6.66059459 32.0702162,6.66059459 L30.6819459,6.66059459 C30.5143243,6.66059459 30.3962703,6.82556757 30.4503784,6.98410811 L32.0055135,11.5496216 L30.5427027,13.6136757 C30.4280541,13.7756216 30.5438378,13.9996216 30.7424865,13.9996216 L32.1534595,13.9996216 C32.287027,13.9996216 32.4122703,13.9341622 32.4887027,13.8244324 L37.1858919,7.04464865 C37.2982703,6.88232432 37.1824865,6.66059459 36.984973,6.66059459" id="Fill-9" fill="#27346A" sketch:type="MSShapeGroup" mask="url(#mask-4)"></path>
                    <path d="M52.0883243,4.1527027 L50.8839459,11.8156216 C50.8604865,11.9639459 50.9751351,12.0982703 51.1253514,12.0982703 L52.3369189,12.0982703 C52.5374595,12.0982703 52.7084865,11.9522162 52.7395135,11.7539459 L53.9272432,4.22875676 C53.9507027,4.08043243 53.8360541,3.94610811 53.6854595,3.94610811 L52.3301081,3.94610811 C52.2094054,3.94610811 52.1068649,4.03351351 52.0883243,4.1527027" id="Fill-10" fill="#2790C3" sketch:type="MSShapeGroup" mask="url(#mask-4)"></path>
                    <path d="M9.87,1.35232432 C9.23659459,0.630378378 8.09162162,0.320864865 6.62691892,0.320864865 L2.37583784,0.320864865 C2.07616216,0.320864865 1.82151351,0.538810811 1.77459459,0.834324324 L0.00454054054,12.0604324 C-0.0306486486,12.2817838 0.140756757,12.4823243 0.365135135,12.4823243 L2.98956757,12.4823243 L3.6487027,8.30162162 L3.62827027,8.43254054 C3.67518919,8.13702703 3.92794595,7.91908108 4.22724324,7.91908108 L5.47437838,7.91908108 C7.92437838,7.91908108 9.84275676,6.92394595 10.4031351,4.04524324 C10.4197838,3.96010811 10.4341622,3.87724324 10.4466486,3.79627027 C10.3758919,3.75881081 10.3758919,3.75881081 10.4466486,3.79627027 C10.6135135,2.73227027 10.4455135,2.00805405 9.87,1.35232432" id="Fill-11" fill="#27346A" sketch:type="MSShapeGroup" mask="url(#mask-4)"></path>
                    <path d="M4.35702703,3.81027027 C4.38502703,3.63243243 4.4992973,3.48675676 4.65291892,3.41297297 C4.72291892,3.37967568 4.80086486,3.36113514 4.88259459,3.36113514 L8.21535135,3.36113514 C8.61,3.36113514 8.97816216,3.38686486 9.31454054,3.44097297 C9.41102703,3.45648649 9.50448649,3.47427027 9.5952973,3.4947027 C9.68610811,3.51475676 9.77427027,3.53745946 9.85978378,3.56243243 C9.90254054,3.57491892 9.94454054,3.58778378 9.98578378,3.60140541 C10.1511351,3.65664865 10.3051351,3.72097297 10.4466486,3.79627027 C10.6135135,2.73189189 10.4455135,2.00805405 9.87,1.35232432 C9.23621622,0.630378378 8.09162162,0.320864865 6.62691892,0.320864865 L2.37545946,0.320864865 C2.07616216,0.320864865 1.82151351,0.538810811 1.77459459,0.834324324 L0.00454054054,12.0600541 C-0.0306486486,12.2817838 0.140756757,12.4819459 0.364756757,12.4819459 L2.98956757,12.4819459 L4.35702703,3.81027027" id="Fill-12" fill="#27346A" sketch:type="MSShapeGroup" mask="url(#mask-4)"></path>
                    <path d="M10.4466486,3.79627027 L10.4466486,3.79627027 C10.4337838,3.87762162 10.4197838,3.96010811 10.4031351,4.04524324 C9.84275676,6.92356757 7.92437838,7.91908108 5.47437838,7.91908108 L4.22686486,7.91908108 C3.92756757,7.91908108 3.67481081,8.13702703 3.62827027,8.43254054 L2.80832432,13.6307027 C2.77767568,13.8244324 2.92751351,14 3.12351351,14 L5.33589189,14 C5.59772973,14 5.82059459,13.8092973 5.86145946,13.5508649 L5.88302703,13.4381081 L6.3,10.7955135 L6.32686486,10.6494595 C6.36772973,10.391027 6.59059459,10.2003243 6.85243243,10.2003243 L7.18351351,10.2003243 C9.32664865,10.2003243 11.0047568,9.32967568 11.4951351,6.81156757 C11.6998378,5.7592973 11.5938919,4.8807027 11.0524324,4.26356757 C10.8882162,4.07664865 10.6842703,3.92227027 10.4466486,3.79627027" id="Fill-13" fill="#2790C3" sketch:type="MSShapeGroup" mask="url(#mask-4)"></path>
                </g>
                <path d="M9.86016216,3.56243243 C9.77464865,3.53745946 9.68648649,3.51475676 9.59567568,3.4947027 C9.50486486,3.47464865 9.41102703,3.45686486 9.31491892,3.44135135 C8.97816216,3.38686486 8.61037838,3.36113514 8.21535135,3.36113514 L4.88297297,3.36113514 C4.80086486,3.36113514 4.72291892,3.37967568 4.6532973,3.41335135 C4.4992973,3.48713514 4.38540541,3.63243243 4.35740541,3.81064865 L3.64908108,8.30162162 L3.62864865,8.43254054 C3.67518919,8.13702703 3.92794595,7.91908108 4.22724324,7.91908108 L5.47475676,7.91908108 C7.92475676,7.91908108 9.84313514,6.92394595 10.4035135,4.04524324 C10.4201622,3.96010811 10.4341622,3.87762162 10.447027,3.79627027 C10.3051351,3.72135135 10.1515135,3.65664865 9.98616216,3.60178378 C9.94491892,3.58816216 9.90291892,3.57491892 9.86016216,3.56243243" id="Fill-15" fill="#1F264F" sketch:type="MSShapeGroup"></path>
            </g>
        </g>
    </g>
</svg>