<svg id="Ebene_1" data-name="Ebene 1" xmlns="http://www.w3.org/2000/svg" xmlns:xlink="http://www.w3.org/1999/xlink" width="30" height="30" viewBox="0 0 30 30">
  <defs>
    <style>
      .cls-1 {
        fill: url(#Unbenannter_Verlauf_2);
      }
    </style>
    <radialGradient id="Unbenannter_Verlauf_2" data-name="Unbenannter Verlauf 2" cx="-60.16" cy="-743.36" r="14.94" gradientTransform="matrix(1.52, 1.63, -1.5, 1.4, -1016.3, 1143.2)" gradientUnits="userSpaceOnUse">
      <stop offset="0" stop-color="#7fd3f3"/>
      <stop offset="1" stop-color="#017cc2"/>
    </radialGradient>
  </defs>
  <title>payment-2017</title>
  <path id="path5348" class="cls-1" d="M29.82,16.34H28.26a1.77,1.77,0,0,0-1.05.28v-.28H24.92a1.61,1.61,0,0,0-1,.28v-.28H19.82v.28a2.22,2.22,0,0,0-1.13-.28H16v.28a1.89,1.89,0,0,0-1.17-.28h-3l-.7.75-.64-.75H5.93v4.9h4.43l.71-.76.67.76h2.73V20.09h.27a3,3,0,0,0,1.16-.17v1.33h2.26V20h.11c.14,0,.15,0,.15.14v1.14h6.84a2,2,0,0,0,1.15-.31v.31h2.17A3,3,0,0,0,29.82,21v9H0V15.19H1.43l.32-.79h.72l.32.79H5.62v-.6l.25.6H7.32l.26-.61v.61h7V13.91h.14c.1,0,.12,0,.12.17v1.11h3.62v-.3a2.83,2.83,0,0,0,1.34.3h1.52l.33-.79h.72l.32.79h2.93v-.74l.45.74h2.35v-4.9H26.1v.58l-.33-.58H23.38v.58l-.29-.58H19.86a2.9,2.9,0,0,0-1.4.28v-.28H16.24v.28a1.42,1.42,0,0,0-.95-.28H7.15L6.6,11.55,6,10.29H3.48v.58l-.29-.58H1L0,12.62V0H29.82V16.34M27.69,14.5H26.49L24.9,11.86V14.5H23.2l-.32-.79H21.13l-.32.79h-1a1.77,1.77,0,0,1-1.22-.39,1.78,1.78,0,0,1-.44-1.34,1.88,1.88,0,0,1,.45-1.37A1.71,1.71,0,0,1,19.9,11h.8v.75h-.78a.8.8,0,0,0-.65.21,1.14,1.14,0,0,0-.25.8,1.19,1.19,0,0,0,.24.82.79.79,0,0,0,.58.18h.38L21.4,11h1.25l1.42,3.33V11h1.28l1.47,2.45V11h.86Zm-10.78,0h.86V11h-.86ZM16,11.15A2,2,0,0,0,15,11H13.05V14.5h.84V13.22h.9c.31,0,.49,0,.61.15a1,1,0,0,1,.14.68v.44h.84v-.7a1,1,0,0,0-.14-.64,1,1,0,0,0-.41-.3,1,1,0,0,0,.6-.93.82.82,0,0,0-.43-.78m-3.52,2.61h-2v-.7h1.91v-.72H10.51v-.63h2V11H9.67V14.5h2.8ZM9,11H7.65l-1,2.39L5.55,11H4.18v3.33L2.76,11H1.51L0,14.5H.92l.32-.79H3l.32.79H5V11.74L6.23,14.5H7l1.22-2.76V14.5H9Zm13.53,2L22,11.58,21.43,13Zm-7.25-.55a.78.78,0,0,1-.41.07h-1v-.78h1a.87.87,0,0,1,.4.06.34.34,0,0,1,.17.32.37.37,0,0,1-.17.33M1.54,13l.57-1.4L2.69,13H1.54M30,19.44c0,.75-.47,1.11-1.32,1.11H27.06v-.75h1.61a.49.49,0,0,0,.34-.09.31.31,0,0,0,.1-.23.3.3,0,0,0-.1-.23.42.42,0,0,0-.29-.08c-.78,0-1.77,0-1.77-1.09a1,1,0,0,1,1.2-1h1.67v.76H28.29a.58.58,0,0,0-.33.06.28.28,0,0,0-.12.25.27.27,0,0,0,.18.26,1,1,0,0,0,.32,0h.45a1.32,1.32,0,0,1,1,.28,1,1,0,0,1,.25.75m-3.53-.75a1.34,1.34,0,0,0-1-.28h-.45a1.06,1.06,0,0,1-.32,0,.27.27,0,0,1-.18-.26.28.28,0,0,1,.12-.25.59.59,0,0,1,.34-.06h1.54V17H24.88a1,1,0,0,0-1.2,1c0,1.12,1,1.07,1.77,1.09a.45.45,0,0,1,.29.08.3.3,0,0,1,.1.23.31.31,0,0,1-.1.23.49.49,0,0,1-.34.09H23.77v.75h1.63c.85,0,1.32-.36,1.32-1.11a1,1,0,0,0-.25-.75m-3.2,1.12h-2v-.7h1.92V18.4H21.31v-.63h2V17h-2.8v3.52h2.8Zm-3.7-2.62a2,2,0,0,0-1-.17H16.64v3.52h.84V19.27h.9c.31,0,.49,0,.61.15a1,1,0,0,1,.14.68v.44H20v-.7a1,1,0,0,0-.14-.64.92.92,0,0,0-.41-.3A1,1,0,0,0,20,18a.82.82,0,0,0-.43-.78M14.83,17H12.15l-1.07,1.16-1-1.16H6.68v3.52H10l1.07-1.16,1,1.16h1.63V19.37h1c.73,0,1.46-.2,1.46-1.18S15.49,17,14.83,17m4.08,1.45a.82.82,0,0,1-.41.07h-1v-.78h1a.89.89,0,0,1,.4.06.35.35,0,0,1,.17.32.38.38,0,0,1-.17.34m-4.09.17H13.74v-.88h1.09c.3,0,.51.12.51.43s-.2.46-.52.46m-3.21.15,1.28-1.39v2.82Zm-2,1H7.52v-.7H9.36V18.4H7.52v-.63h2.1l.92,1-1,1"/>
</svg>
